<svg xmlns="http://www.w3.org/2000/svg" viewBox="0 0 24 24" width="48" height="48">
  <path d="M12 15.5A3.5 3.5 0 1 0 12 8.5a3.5 3.5 0 0 0 0 7z" fill="none" stroke="#FFFFFF" stroke-width="1.6"/>
  <path d="M19.4 15a1.8 1.8 0 0 0 .33 1.94l.05.05a1 1 0 0 1-1.41 1.41l-.05-.05a1.8 1.8 0 0 0-1.94-.33 1.8 1.8 0 0 0-1 1.63V21a1 1 0 0 1-2 0v-.39a1.8 1.8 0 0 0-1-1.63 1.8 1.8 0 0 0-1.94.33l-.05.05a1 1 0 0 1-1.41-1.41l.05-.05A1.8 1.8 0 0 0 4.6 15a1.8 1.8 0 0 0-.33-1.94l-.05-.05A1 1 0 0 1 5.63 11.6l.05.05a1.8 1.8 0 0 0 1.94.33 1.8 1.8 0 0 0 1-1.63V10a1 1 0 0 1 2 0v.39c.2.6.7 1.09 1.3 1.29.6.2 1.3.05 1.8-.4l.05-.05A1 1 0 0 1 18.37 12.4l-.05.05c.2.5.2 1.1.08 1.55z" fill="none" stroke="#FFFFFF" stroke-width="1.4"/>
</svg>
